<mxfile host="app.diagrams.net" modified="2022-12-28T11:50:47.103Z" agent="5.0 (Windows NT 10.0; Win64; x64) AppleWebKit/537.36 (KHTML, like Gecko) Chrome/108.0.0.0 Safari/537.36" etag="6ksER08UXcfOAkOm8Y4O" version="20.5.1" type="github">
  <diagram id="uqxx9vcqiw0YUOgWOmlU" name="Page-1">
    <mxGraphModel dx="1422" dy="772" grid="1" gridSize="10" guides="1" tooltips="1" connect="1" arrows="1" fold="1" page="1" pageScale="1" pageWidth="850" pageHeight="1100" math="0" shadow="0">
      <root>
        <mxCell id="0" />
        <mxCell id="1" parent="0" />
        <mxCell id="6TtBiQwD0GD3tF3hDFsh-1" value="Author/Admin" style="rounded=1;whiteSpace=wrap;html=1;" vertex="1" parent="1">
          <mxGeometry x="365" y="90" width="120" height="60" as="geometry" />
        </mxCell>
        <mxCell id="6TtBiQwD0GD3tF3hDFsh-4" value="Database" style="shape=cylinder3;whiteSpace=wrap;html=1;boundedLbl=1;backgroundOutline=1;size=15;" vertex="1" parent="1">
          <mxGeometry x="170" y="190" width="60" height="80" as="geometry" />
        </mxCell>
        <mxCell id="6TtBiQwD0GD3tF3hDFsh-5" value="Database" style="shape=cylinder3;whiteSpace=wrap;html=1;boundedLbl=1;backgroundOutline=1;size=15;" vertex="1" parent="1">
          <mxGeometry x="610" y="190" width="60" height="80" as="geometry" />
        </mxCell>
        <mxCell id="6TtBiQwD0GD3tF3hDFsh-17" style="edgeStyle=orthogonalEdgeStyle;rounded=0;orthogonalLoop=1;jettySize=auto;html=1;entryX=1;entryY=0.5;entryDx=0;entryDy=0;entryPerimeter=0;" edge="1" parent="1" source="6TtBiQwD0GD3tF3hDFsh-14" target="6TtBiQwD0GD3tF3hDFsh-4">
          <mxGeometry relative="1" as="geometry" />
        </mxCell>
        <mxCell id="6TtBiQwD0GD3tF3hDFsh-25" style="edgeStyle=orthogonalEdgeStyle;rounded=0;orthogonalLoop=1;jettySize=auto;html=1;entryX=-0.103;entryY=0.497;entryDx=0;entryDy=0;entryPerimeter=0;" edge="1" parent="1" source="6TtBiQwD0GD3tF3hDFsh-14" target="6TtBiQwD0GD3tF3hDFsh-21">
          <mxGeometry relative="1" as="geometry">
            <mxPoint x="330" y="360" as="targetPoint" />
            <Array as="points">
              <mxPoint x="320" y="360" />
            </Array>
          </mxGeometry>
        </mxCell>
        <mxCell id="6TtBiQwD0GD3tF3hDFsh-14" value="Blog Admin Page" style="whiteSpace=wrap;html=1;align=center;verticalAlign=middle;treeFolding=1;treeMoving=1;" vertex="1" parent="1">
          <mxGeometry x="280" y="200" width="100" height="60" as="geometry" />
        </mxCell>
        <mxCell id="6TtBiQwD0GD3tF3hDFsh-16" style="edgeStyle=orthogonalEdgeStyle;rounded=0;orthogonalLoop=1;jettySize=auto;html=1;exitX=1;exitY=0.5;exitDx=0;exitDy=0;entryX=0;entryY=0.5;entryDx=0;entryDy=0;entryPerimeter=0;" edge="1" parent="1" source="6TtBiQwD0GD3tF3hDFsh-15" target="6TtBiQwD0GD3tF3hDFsh-5">
          <mxGeometry relative="1" as="geometry" />
        </mxCell>
        <mxCell id="6TtBiQwD0GD3tF3hDFsh-23" style="edgeStyle=orthogonalEdgeStyle;rounded=0;orthogonalLoop=1;jettySize=auto;html=1;" edge="1" parent="1" source="6TtBiQwD0GD3tF3hDFsh-15" target="6TtBiQwD0GD3tF3hDFsh-21">
          <mxGeometry relative="1" as="geometry">
            <Array as="points">
              <mxPoint x="520" y="359" />
            </Array>
          </mxGeometry>
        </mxCell>
        <mxCell id="6TtBiQwD0GD3tF3hDFsh-15" value="Career Admin Page" style="whiteSpace=wrap;html=1;align=center;verticalAlign=middle;treeFolding=1;treeMoving=1;" vertex="1" parent="1">
          <mxGeometry x="470" y="200" width="100" height="60" as="geometry" />
        </mxCell>
        <mxCell id="6TtBiQwD0GD3tF3hDFsh-18" value="" style="endArrow=classic;startArrow=classic;html=1;rounded=0;" edge="1" parent="1">
          <mxGeometry width="50" height="50" relative="1" as="geometry">
            <mxPoint x="425" y="240" as="sourcePoint" />
            <mxPoint x="424.5" y="150" as="targetPoint" />
          </mxGeometry>
        </mxCell>
        <mxCell id="6TtBiQwD0GD3tF3hDFsh-20" value="" style="endArrow=classic;startArrow=classic;html=1;rounded=0;exitX=1;exitY=0.617;exitDx=0;exitDy=0;exitPerimeter=0;entryX=0;entryY=0.617;entryDx=0;entryDy=0;entryPerimeter=0;" edge="1" parent="1" source="6TtBiQwD0GD3tF3hDFsh-14" target="6TtBiQwD0GD3tF3hDFsh-15">
          <mxGeometry width="50" height="50" relative="1" as="geometry">
            <mxPoint x="435" y="240" as="sourcePoint" />
            <mxPoint x="434.5" y="150" as="targetPoint" />
          </mxGeometry>
        </mxCell>
        <mxCell id="6TtBiQwD0GD3tF3hDFsh-27" style="edgeStyle=orthogonalEdgeStyle;rounded=0;orthogonalLoop=1;jettySize=auto;html=1;entryX=0.5;entryY=0;entryDx=0;entryDy=0;" edge="1" parent="1" source="6TtBiQwD0GD3tF3hDFsh-21" target="6TtBiQwD0GD3tF3hDFsh-26">
          <mxGeometry relative="1" as="geometry" />
        </mxCell>
        <mxCell id="6TtBiQwD0GD3tF3hDFsh-21" value="" style="sketch=0;outlineConnect=0;fontColor=#232F3E;gradientColor=none;fillColor=#232F3D;strokeColor=none;dashed=0;verticalLabelPosition=bottom;verticalAlign=top;align=center;html=1;fontSize=12;fontStyle=0;aspect=fixed;pointerEvents=1;shape=mxgraph.aws4.traditional_server;" vertex="1" parent="1">
          <mxGeometry x="396" y="310" width="58" height="100.53" as="geometry" />
        </mxCell>
        <mxCell id="6TtBiQwD0GD3tF3hDFsh-26" value="User" style="rounded=1;whiteSpace=wrap;html=1;" vertex="1" parent="1">
          <mxGeometry x="365" y="480" width="120" height="60" as="geometry" />
        </mxCell>
      </root>
    </mxGraphModel>
  </diagram>
</mxfile>
